# Blender 4.1.1
# www.blender.org
mtllib untitled.mtl
o Plane
v -0.952103 0.408856 0.955069
v 0.942799 0.353450 0.940156
v -0.894392 0.295000 -1.011031
v 0.939809 0.332415 -0.908180
v -0.898193 0.288587 -0.871657
v -0.967751 0.204603 -0.596352
v -0.967751 0.204603 -0.346352
v -0.909803 0.240762 -0.179432
v -0.936050 0.192000 0.157534
v -0.906589 0.248016 0.350949
v -0.912203 0.251273 0.495168
v -0.964981 0.275716 0.651356
v -0.969911 0.374304 0.853069
v -0.830574 0.397611 0.968780
v -0.631859 0.268467 0.993694
v -0.539559 0.205761 0.935567
v -0.240982 0.332821 0.972121
v -0.007998 0.259986 0.826797
v 0.133945 0.306885 0.902521
v 0.474974 0.214887 0.957141
v 0.784662 0.258599 0.930911
v 0.939237 0.387027 0.804149
v 0.969897 0.204170 0.670354
v 0.948047 0.188941 0.433314
v 0.976747 0.175372 0.125106
v 0.976953 0.176549 -0.620912
v 0.940888 0.295718 -0.690503
v 0.647755 0.253469 -0.912443
v 0.528215 0.196613 -0.950148
v 0.278959 0.235344 -0.959082
v 0.129524 0.180482 -0.953824
v -0.236893 0.175500 -0.956105
v -0.430494 0.215237 -0.967095
v -0.586917 0.202324 -1.010181
v -0.805071 0.289752 -0.967333
v -0.788855 0.142536 0.750011
v -0.768826 0.360304 -0.781943
v -0.806889 0.150172 0.240064
v -0.773488 0.117149 -0.365422
v -0.739775 0.196700 -0.575404
v -0.663952 -0.041596 0.625151
v -0.604756 0.026789 0.446680
v -0.606512 -0.068722 0.287528
v -0.505759 0.055498 0.182659
v -0.562978 0.030893 0.804437
v -0.567414 0.058933 -0.150554
v -0.617539 0.083569 -0.651301
v -0.670390 0.190511 -0.815232
v -0.434302 -0.039591 0.517338
v -0.390525 -0.056220 0.112368
v -0.460396 0.017361 -0.064660
v -0.425114 -0.005395 -0.639128
v -0.463660 0.033986 0.538788
v -0.274880 -0.058646 -0.163491
v -0.274165 0.035791 -0.543176
v -0.340740 0.348413 0.840526
v -0.291782 0.155640 0.664526
v -0.205851 -0.121878 0.267518
v -0.110571 -0.032075 0.014768
v -0.098054 -0.031847 -0.377948
v -0.167630 -0.130787 -0.632715
v -0.274587 0.189808 -0.819318
v 0.092648 0.257977 0.766446
v -0.081257 -0.004791 0.574803
v -0.124774 -0.034582 0.431005
v 0.026725 -0.078305 0.025942
v 0.053722 0.146797 -0.812267
v 0.099313 0.012348 -0.538230
v 0.195781 0.109324 0.751044
v 0.194755 0.004063 0.614219
v 0.338522 0.101682 0.580953
v 0.173700 0.011370 -0.139914
v 0.134284 0.090874 -0.855181
v 0.317308 -0.027013 0.260970
v 0.338439 -0.045089 -0.032226
v 0.353253 -0.108882 -0.334826
v 0.278693 0.017281 -0.373485
v 0.456588 0.024236 -0.497751
v 0.398040 0.093852 -0.826017
v 0.417357 0.234898 0.807860
v 0.578900 0.107700 0.784820
v 0.421975 0.083699 0.479877
v 0.532857 0.072421 -0.159597
v 0.550986 0.051808 0.602536
v 0.678573 0.016431 0.029225
v 0.645949 0.037652 -0.388276
v 0.613252 0.080412 0.195714
v 0.780031 -0.001675 -0.569664
v 0.636999 0.092537 -0.758952
v 0.761560 0.259496 0.784571
v 0.875848 0.095537 0.734567
v 0.700812 0.063882 0.608406
v 0.876212 0.098919 0.345386
v 0.823514 0.180355 0.174635
v 0.911419 0.190828 -0.216356
v 0.829103 0.203058 -0.377183
v 0.822714 0.280796 -0.602084
vn -0.0001 0.9861 0.1662
vn 0.0357 0.9983 0.0469
vn 0.0035 0.9861 0.1660
vn 0.1310 0.9891 -0.0674
vn 0.6580 0.5729 0.4887
vn -0.0916 0.6402 0.7627
vn -0.1284 0.6199 0.7741
vn -0.7966 0.4442 0.4100
vn 0.1244 0.9330 -0.3378
vn 0.2061 0.8811 -0.4256
vn 0.5773 0.8137 0.0678
vn 0.6516 0.7585 0.0082
vn 0.4668 0.8279 -0.3109
vn 0.4521 0.8771 0.1621
vn 0.4635 0.8190 -0.3383
vn 0.0346 0.9994 -0.0000
vn 0.0062 0.9560 0.2932
vn 0.4785 0.6154 -0.6263
vn 0.5817 0.8123 0.0431
vn 0.4732 0.6913 -0.5460
vn 0.7258 0.5863 -0.3599
vn 0.2920 0.9554 -0.0442
vn 0.7437 0.5768 0.3379
vn 0.7285 0.6571 0.1938
vn -0.0873 0.6051 -0.7913
vn -0.2306 0.9317 0.2805
vn -0.8463 0.4608 -0.2672
vn 0.4195 0.9077 0.0027
vn 0.9167 0.3905 -0.0848
vn 0.7019 0.7120 0.0189
vn 0.3719 0.9006 0.2247
vn 0.0071 0.8386 0.5448
vn -0.6411 0.5135 -0.5703
vn -0.4831 0.8588 -0.1706
vn 0.0088 0.9246 0.3808
vn 0.2045 0.9230 -0.3260
vn 0.1445 0.9602 0.2391
vn -0.4807 0.7655 0.4277
vn 0.1211 0.3220 -0.9389
vn 0.6426 0.6386 -0.4235
vn 0.8712 0.4292 0.2381
vn 0.2531 0.9643 -0.0776
vn 0.1533 0.6872 -0.7101
vn 0.3183 0.9479 0.0107
vn -0.3922 0.8886 -0.2380
vn 0.0490 0.5146 0.8560
vn 0.3911 0.3592 -0.8474
vn -0.2422 0.9620 -0.1260
vn 0.3179 0.9480 0.0166
vn -0.3282 0.9215 0.2074
vn -0.1185 0.9905 -0.0696
vn -0.0060 0.8818 0.4715
vn -0.1289 0.9911 -0.0328
vn -0.1298 0.9852 0.1118
vn 0.0855 0.2816 -0.9557
vn -0.5624 0.6574 -0.5015
vn -0.2284 0.9084 -0.3502
vn 0.7541 0.5538 0.3530
vn -0.0346 0.9764 0.2132
vn -0.3562 0.9307 -0.0831
vn 0.4812 0.5041 0.7171
vn 0.0582 0.9979 0.0276
vn 0.5004 0.8556 -0.1325
vn 0.0131 0.9895 -0.1440
vn -0.2048 0.9495 0.2379
vn -0.4842 0.5816 -0.6537
vn -0.6333 0.7618 -0.1366
vn -0.5386 0.8383 0.0847
vn 0.4280 0.8955 0.1223
vn 0.4330 0.5252 -0.7325
vn -0.1052 0.9925 0.0621
vn -0.3344 0.8064 0.4878
vn -0.6806 0.7204 -0.1337
vn -0.7372 0.1859 0.6496
vn -0.5162 0.8521 0.0867
vn -0.4957 -0.0819 -0.8646
vn -0.4883 0.7169 0.4976
vn -0.5882 0.7543 -0.2917
vn -0.8652 0.2931 0.4068
vn 0.0443 0.9983 0.0367
vn 0.1630 0.9866 -0.0084
vn 0.5626 0.7862 0.2558
vn -0.3052 0.9083 -0.2860
vn 0.7789 0.5202 -0.3503
vn 0.4002 0.8883 0.2252
vn -0.0884 0.9958 0.0225
vn 0.2034 0.9780 -0.0463
vn -0.0146 0.9745 0.2240
vn -0.2386 0.7131 0.6593
vn 0.0953 0.4032 -0.9101
vn -0.2613 0.9632 0.0625
vn 0.6832 0.5366 -0.4953
vn 0.3218 0.9465 -0.0238
vn 0.3959 0.9085 -0.1335
vn 0.4105 0.8289 0.3799
vn -0.6608 0.5403 0.5209
vn 0.8606 0.3098 0.4042
vn 0.6133 0.7782 -0.1353
vn 0.8599 0.4520 0.2371
vn 0.4620 0.6307 -0.6236
vn 0.3035 0.4589 0.8351
vn 0.4068 0.9111 -0.0659
vn 0.2499 0.9680 0.0226
vn -0.4017 0.9050 -0.1397
vn -0.0973 0.9927 0.0715
vn -0.1552 0.9726 -0.1733
vn 0.7102 0.7024 0.0479
vn 0.3723 0.9280 -0.0148
vn 0.2128 0.5691 0.7943
vn -0.3999 0.8243 0.4008
vn -0.5659 0.4729 -0.6754
vn -0.1305 0.9000 -0.4158
vn 0.3367 0.9416 -0.0023
vn 0.0522 0.9346 0.3518
vn 0.1355 0.6131 -0.7783
vn -0.0669 0.9808 -0.1830
vn -0.1550 0.9879 -0.0044
vn -0.1671 0.9360 -0.3097
vn 0.0713 0.5565 -0.8278
vn -0.7135 0.7004 -0.0201
vn -0.5404 0.7164 0.4414
vn -0.1561 0.9437 -0.2918
vn 0.0616 0.7909 -0.6089
vn -0.1383 0.4959 0.8573
vn -0.1542 0.9202 -0.3599
vn -0.0677 0.9889 -0.1321
vn 0.6386 0.7276 0.2507
vn 0.1124 0.9238 -0.3661
vn 0.1378 0.1962 -0.9708
vn -0.0341 0.9994 0.0072
vn -0.0588 0.9705 0.2340
vn 0.2557 0.9663 0.0308
vn 0.0076 0.9992 -0.0385
vn -0.1050 0.8056 0.5830
vn -0.1641 0.7648 -0.6230
vn 0.2472 0.9151 -0.3185
vn 0.2271 0.9738 0.0143
vn -0.3802 0.8858 -0.2662
vn -0.4728 0.8768 0.0873
vn -0.7428 0.6656 0.0727
vn 0.6024 0.7880 -0.1269
vn -0.0887 0.9373 0.3370
vn 0.3338 0.9424 0.0218
vn -0.0359 0.9885 0.1472
vn -0.1937 0.6839 0.7034
vn -0.1374 0.9901 0.0278
vn -0.0253 0.6733 -0.7389
vn -0.4178 0.7811 -0.4641
vn -0.6336 0.6763 0.3757
vn -0.5451 0.6399 -0.5417
vn -0.9840 0.1582 0.0826
vn -0.5853 0.7835 0.2087
vn -0.2942 0.5318 -0.7942
vn -0.4596 0.8880 -0.0147
vn 0.0188 0.9989 -0.0422
vn 0.2223 0.9750 0.0016
vn 0.4558 0.5477 0.7016
vt 1.000000 0.879828
vt 0.999844 1.000000
vt 0.937500 0.834129
vt 0.000000 0.930991
vt 0.069806 1.000000
vt 0.000000 0.990586
vt 0.348462 0.937500
vt 0.250000 1.000000
vt 0.163442 0.924874
vt 0.500000 0.928477
vt 0.361451 1.000000
vt 0.566215 0.922485
vt 0.549772 1.000000
vt 0.704442 0.908831
vt 0.626481 1.000000
vt 0.849521 0.986622
vt 0.819664 0.881000
vt 0.000000 0.000000
vt 0.062500 0.000682
vt 0.000000 0.062500
vt 0.000000 0.180466
vt 0.106681 0.131310
vt 0.000000 0.250000
vt 0.000513 0.328953
vt 0.088241 0.389910
vt 0.000000 0.444809
vt 0.185165 0.619577
vt 0.000000 0.625000
vt 0.000000 0.687500
vt 0.102351 0.805712
vt 0.000000 0.812500
vt 0.174840 0.000303
vt 0.181085 0.293116
vt 0.248883 0.118057
vt 0.135345 0.187500
vt 0.187500 0.375000
vt 0.229140 0.436388
vt 0.081101 0.703309
vt 0.206147 0.845013
vt 0.252366 0.000937
vt 0.293247 0.192865
vt 0.294050 0.835175
vt 0.317218 0.250887
vt 0.324324 0.479314
vt 0.236078 0.562500
vt 0.322989 0.636456
vt 0.364996 0.811900
vt 0.380710 0.062500
vt 0.399788 0.125000
vt 0.418416 0.390136
vt 0.429597 0.539527
vt 0.425728 0.728231
vt 0.474039 0.222941
vt 0.437500 0.831279
vt 0.500000 0.024915
vt 0.430589 0.000000
vt 0.522417 0.519390
vt 0.537662 0.796370
vt 0.606883 0.125000
vt 0.553021 0.071979
vt 0.670039 0.206721
vt 0.468563 0.331648
vt 0.596233 0.595237
vt 0.662871 0.375812
vt 0.674349 0.530898
vt 0.649625 0.712125
vt 0.722382 0.062500
vt 0.789962 0.095210
vt 0.604290 0.198891
vt 0.724392 0.285004
vt 0.687500 0.687500
vt 0.730352 0.776752
vt 0.792549 0.436224
vt 0.875986 0.212920
vt 0.821557 0.522200
vt 0.746245 0.624051
vt 0.812500 0.721417
vt 0.755465 0.000000
vt 0.901675 0.084924
vt 0.790416 0.207020
vt 0.923963 0.598549
vt 0.875000 0.791786
vt 0.937500 0.125000
vt 0.937500 0.360049
vt 0.928192 0.443370
vt 1.000000 0.000000
vt 0.913032 0.000000
vt 1.000000 0.160014
vt 1.000000 0.315542
vt 1.000000 0.438814
vt 1.000000 0.811822
vt 0.908170 0.708786
vt 0.062500 0.908567
vt 0.187500 1.000000
vt 0.753504 1.000000
vt 0.572191 0.000000
vt 1.000000 0.062500
s 0
f 27/1/1 4/2/1 97/3/1
f 5/4/2 35/5/2 3/6/2
f 62/7/3 33/8/3 48/9/3
f 67/10/4 32/11/4 62/7/4
f 73/12/5 31/13/5 67/10/5
f 79/14/6 30/15/6 73/12/6
f 28/16/7 30/15/7 79/14/7
f 97/3/8 28/16/8 89/17/8
f 1/18/9 14/19/9 13/20/9
f 14/19/10 12/21/10 13/20/10
f 36/22/11 11/23/11 12/21/11
f 36/22/12 10/24/12 11/23/12
f 38/25/13 9/26/13 10/24/13
f 46/27/14 8/28/14 9/26/14
f 46/27/15 7/29/15 8/28/15
f 7/29/16 40/30/16 6/31/16
f 40/30/17 5/4/17 6/31/17
f 15/32/18 36/22/18 14/19/18
f 36/22/19 42/33/19 10/24/19
f 45/34/20 41/35/20 36/22/20
f 42/33/21 43/36/21 38/25/21
f 44/37/22 46/27/22 38/25/22
f 39/38/23 47/39/23 40/30/23
f 40/30/24 47/39/24 48/9/24
f 16/40/25 45/34/25 15/32/25
f 53/41/26 42/33/26 41/35/26
f 42/33/27 44/37/27 43/36/27
f 52/42/28 47/39/28 46/27/28
f 49/43/29 44/37/29 53/41/29
f 50/44/30 51/45/30 44/37/30
f 46/27/31 54/46/31 55/47/31
f 47/39/32 62/7/32 48/9/32
f 16/40/33 56/48/33 45/34/33
f 57/49/34 53/41/34 45/34/34
f 58/50/35 51/45/35 50/44/35
f 59/51/36 54/46/36 51/45/36
f 54/46/37 60/52/37 55/47/37
f 55/47/38 62/7/38 52/42/38
f 64/53/39 49/43/39 53/41/39
f 60/52/40 61/54/40 55/47/40
f 61/54/41 62/7/41 55/47/41
f 18/55/42 56/48/42 17/56/42
f 18/55/43 57/49/43 56/48/43
f 66/57/44 60/52/44 59/51/44
f 60/52/45 68/58/45 61/54/45
f 67/10/46 62/7/46 61/54/46
f 69/59/47 64/53/47 63/60/47
f 64/53/48 71/61/48 65/62/48
f 65/62/49 66/57/49 59/51/49
f 72/63/50 60/52/50 66/57/50
f 74/64/51 75/65/51 66/57/51
f 75/65/52 72/63/52 66/57/52
f 72/63/53 77/66/53 60/52/53
f 77/66/54 68/58/54 60/52/54
f 80/67/55 81/68/55 69/59/55
f 69/59/56 71/61/56 70/69/56
f 82/70/57 74/64/57 71/61/57
f 72/63/58 76/71/58 77/66/58
f 78/72/59 79/14/59 73/12/59
f 74/64/60 87/73/60 75/65/60
f 76/71/61 78/72/61 77/66/61
f 92/74/62 87/73/62 82/70/62
f 85/75/63 83/76/63 87/73/63
f 83/76/64 86/77/64 78/72/64
f 86/77/65 79/14/65 78/72/65
f 20/78/66 90/79/66 81/68/66
f 90/79/67 84/80/67 81/68/67
f 95/81/68 86/77/68 85/75/68
f 88/82/69 89/17/69 86/77/69
f 91/83/70 92/74/70 90/79/70
f 92/74/71 93/84/71 87/73/71
f 93/84/72 94/85/72 87/73/72
f 94/85/73 95/81/73 85/75/73
f 97/3/74 89/17/74 88/82/74
f 2/86/75 90/79/75 21/87/75
f 90/79/76 23/88/76 91/83/76
f 91/83/77 23/88/77 92/74/77
f 92/74/78 24/89/78 93/84/78
f 24/89/79 94/85/79 93/84/79
f 25/90/80 95/81/80 94/85/80
f 26/91/81 96/92/81 95/81/81
f 26/91/82 97/3/82 96/92/82
f 5/4/83 37/93/83 35/5/83
f 37/93/84 48/9/84 35/5/84
f 48/9/85 34/94/85 35/5/85
f 48/9/86 33/8/86 34/94/86
f 62/7/87 32/11/87 33/8/87
f 67/10/88 31/13/88 32/11/88
f 73/12/89 30/15/89 31/13/89
f 28/16/90 29/95/90 30/15/90
f 97/3/91 4/2/91 28/16/91
f 14/19/92 36/22/92 12/21/92
f 38/25/93 46/27/93 9/26/93
f 46/27/94 39/38/94 7/29/94
f 7/29/95 39/38/95 40/30/95
f 40/30/96 37/93/96 5/4/96
f 36/22/97 41/35/97 42/33/97
f 10/24/98 42/33/98 38/25/98
f 40/30/99 48/9/99 37/93/99
f 15/32/100 45/34/100 36/22/100
f 38/25/101 43/36/101 44/37/101
f 44/37/102 51/45/102 46/27/102
f 39/38/103 46/27/103 47/39/103
f 45/34/104 53/41/104 41/35/104
f 42/33/105 53/41/105 44/37/105
f 46/27/106 55/47/106 52/42/106
f 49/43/107 50/44/107 44/37/107
f 51/45/108 54/46/108 46/27/108
f 47/39/109 52/42/109 62/7/109
f 16/40/110 17/56/110 56/48/110
f 45/34/111 56/48/111 57/49/111
f 49/43/112 65/62/112 58/50/112
f 49/43/113 58/50/113 50/44/113
f 58/50/114 59/51/114 51/45/114
f 57/49/115 64/53/115 53/41/115
f 49/43/116 64/53/116 65/62/116
f 59/51/117 60/52/117 54/46/117
f 18/55/118 63/60/118 57/49/118
f 57/49/119 63/60/119 64/53/119
f 58/50/120 65/62/120 59/51/120
f 68/58/121 67/10/121 61/54/121
f 18/55/122 19/96/122 63/60/122
f 69/59/123 70/69/123 64/53/123
f 64/53/124 70/69/124 71/61/124
f 65/62/125 71/61/125 74/64/125
f 65/62/126 74/64/126 66/57/126
f 68/58/127 73/12/127 67/10/127
f 19/96/128 80/67/128 63/60/128
f 63/60/129 80/67/129 69/59/129
f 77/66/130 78/72/130 68/58/130
f 68/58/131 78/72/131 73/12/131
f 19/96/132 20/78/132 80/67/132
f 69/59/133 81/68/133 71/61/133
f 75/65/134 83/76/134 72/63/134
f 72/63/135 83/76/135 76/71/135
f 81/68/136 84/80/136 71/61/136
f 71/61/137 84/80/137 82/70/137
f 82/70/138 87/73/138 74/64/138
f 75/65/139 87/73/139 83/76/139
f 76/71/140 83/76/140 78/72/140
f 20/78/141 81/68/141 80/67/141
f 84/80/142 92/74/142 82/70/142
f 85/75/143 86/77/143 83/76/143
f 86/77/144 89/17/144 79/14/144
f 79/14/145 89/17/145 28/16/145
f 20/78/146 21/87/146 90/79/146
f 90/79/147 92/74/147 84/80/147
f 87/73/148 94/85/148 85/75/148
f 95/81/149 96/92/149 86/77/149
f 86/77/150 96/92/150 88/82/150
f 96/92/151 97/3/151 88/82/151
f 2/86/152 22/97/152 90/79/152
f 90/79/153 22/97/153 23/88/153
f 92/74/154 23/88/154 24/89/154
f 24/89/155 25/90/155 94/85/155
f 25/90/156 26/91/156 95/81/156
f 97/3/157 26/91/157 27/1/157
